<?xml version="1.0" encoding="utf-8"?>
<!-- Generator: Adobe Illustrator 16.0.3, SVG Export Plug-In . SVG Version: 6.00 Build 0)  -->
<!DOCTYPE svg PUBLIC "-//W3C//DTD SVG 1.1//EN" "http://www.w3.org/Graphics/SVG/1.1/DTD/svg11.dtd">
<svg version="1.1" id="b06b03d6-1d0a-4512-b49e-9cf5f658a7aa"
	 xmlns="http://www.w3.org/2000/svg" xmlns:xlink="http://www.w3.org/1999/xlink" x="0px" y="0px" width="33.721px" height="26px"
	 viewBox="0 0 33.721 26" enable-background="new 0 0 33.721 26" xml:space="preserve">
<path fill="#FFFFFF" d="M33.62,25.7L28,14.6c-0.1-0.1-0.1-0.1-0.3-0.1H23l-1.899,2c-0.101,0,4.6-0.1,5.3-0.1c0.1,0,0.1,0.1,0.3,0.1
	l3.4,7c0.1,0.1-0.101,0.3-0.301,0.3H3.62c-0.161-0.01-0.29-0.138-0.3-0.3l3.4-7h0.1c0.6,0,5.3,0.1,5.3,0.1L10.22,14.4H5.62
	c-0.1,0-0.1,0.1-0.3,0.1L0,25.7C-0.1,25.8,0.2,26,0.3,26h33.4C33.62,25.8,33.72,25.7,33.62,25.7z"/>
<path fill="#FF4FC6" d="M16.82,0c-4.197,0-7.6,3.403-7.6,7.6l0,0c0.068,1.43,0.443,2.828,1.1,4.1c0.981,1.485,2.122,2.86,3.4,4.1
	c1.1,1.5,2.399,3.9,2.8,4.5c0.1,0.101,0.1,0.3,0.3,0.3s0.3-0.1,0.4-0.3c0.775-1.588,1.706-3.095,2.779-4.5c0.8-1.1,2.4-2.2,3.4-4.1
	c0.842-1.126,1.298-2.494,1.3-3.9C24.645,3.484,21.136,0.011,16.82,0z M16.82,11.7c-2.26-0.011-4.089-1.84-4.1-4.1
	c0.001-2.265,1.837-4.099,4.102-4.098c2.263,0.001,4.097,1.835,4.098,4.098C20.909,9.86,19.08,11.689,16.82,11.7z"/>
</svg>
